%TF.GenerationSoftware,KiCad,Pcbnew,8.0.8*%
%TF.CreationDate,2026-09-25T14:42:59+02:00*%
%TF.ProjectId,Platine7812,506c6174-696e-4653-9738-31322e6b6963,rev?*%
%TF.SameCoordinates,Original*%
%TF.FileFunction,Copper,L1,Top*%
%TF.FilePolarity,Positive*%
%FSLAX46Y46*%
G04 Gerber Fmt 4.6, Leading zero omitted, Abs format (unit mm)*
G04 Created by KiCad (PCBNEW 8.0.8) date 2026-09-25 14:42:59*
%MOMM*%
%LPD*%
G01*
G04 APERTURE LIST*
G04 Aperture macros list*
%AMRoundRect*
0 Rectangle with rounded corners*
0 $1 Rounding radius*
0 $2 $3 $4 $5 $6 $7 $8 $9 X,Y pos of 4 corners*
0 Add a 4 corners polygon primitive as box body*
4,1,4,$2,$3,$4,$5,$6,$7,$8,$9,$2,$3,0*
0 Add four circle primitives for the rounded corners*
1,1,$1+$1,$2,$3*
1,1,$1+$1,$4,$5*
1,1,$1+$1,$6,$7*
1,1,$1+$1,$8,$9*
0 Add four rect primitives between the rounded corners*
20,1,$1+$1,$2,$3,$4,$5,0*
20,1,$1+$1,$4,$5,$6,$7,0*
20,1,$1+$1,$6,$7,$8,$9,0*
20,1,$1+$1,$8,$9,$2,$3,0*%
G04 Aperture macros list end*
%TA.AperFunction,ComponentPad*%
%ADD10C,3.000000*%
%TD*%
%TA.AperFunction,ComponentPad*%
%ADD11R,1.700000X1.700000*%
%TD*%
%TA.AperFunction,ComponentPad*%
%ADD12RoundRect,0.500000X0.500000X-0.500000X0.500000X0.500000X-0.500000X0.500000X-0.500000X-0.500000X0*%
%TD*%
%TA.AperFunction,ComponentPad*%
%ADD13C,2.000000*%
%TD*%
%TA.AperFunction,ComponentPad*%
%ADD14C,1.600000*%
%TD*%
%TA.AperFunction,ComponentPad*%
%ADD15R,2.400000X2.400000*%
%TD*%
%TA.AperFunction,ComponentPad*%
%ADD16C,2.400000*%
%TD*%
%TA.AperFunction,ComponentPad*%
%ADD17R,2.500000X2.500000*%
%TD*%
%TA.AperFunction,ComponentPad*%
%ADD18C,2.500000*%
%TD*%
%TA.AperFunction,ComponentPad*%
%ADD19R,2.000000X2.000000*%
%TD*%
%TA.AperFunction,ComponentPad*%
%ADD20R,1.905000X2.000000*%
%TD*%
%TA.AperFunction,ComponentPad*%
%ADD21O,1.905000X2.000000*%
%TD*%
%TA.AperFunction,ComponentPad*%
%ADD22R,2.200000X2.200000*%
%TD*%
%TA.AperFunction,ComponentPad*%
%ADD23O,2.200000X2.200000*%
%TD*%
%TA.AperFunction,ViaPad*%
%ADD24C,1.200000*%
%TD*%
%TA.AperFunction,Conductor*%
%ADD25C,1.500000*%
%TD*%
%TA.AperFunction,Conductor*%
%ADD26C,2.000000*%
%TD*%
G04 APERTURE END LIST*
D10*
%TO.P,TR1,1*%
%TO.N,/L_F*%
X145000000Y-64000000D03*
%TO.P,TR1,2*%
%TO.N,/N*%
X165320000Y-64000000D03*
%TO.P,TR1,3*%
%TO.N,/AC2*%
X150080000Y-89400000D03*
%TO.P,TR1,4*%
%TO.N,/AC1*%
X139920000Y-89400000D03*
%TD*%
D11*
%TO.P,JP1,1*%
%TO.N,/V12*%
X185000000Y-104000000D03*
%TD*%
D12*
%TO.P,F1,1*%
%TO.N,/L*%
X124000000Y-82000000D03*
X124000000Y-77000000D03*
D13*
%TO.P,F1,2*%
%TO.N,/L_F*%
X124000000Y-67000000D03*
X124000000Y-62000000D03*
%TD*%
D14*
%TO.P,C2,1*%
%TO.N,/VRAW*%
X137000000Y-120000000D03*
%TO.P,C2,2*%
%TO.N,GND*%
X142000000Y-120000000D03*
%TD*%
D15*
%TO.P,C1,1*%
%TO.N,/VRAW*%
X137000000Y-106000000D03*
D16*
%TO.P,C1,2*%
%TO.N,GND*%
X144500000Y-106000000D03*
%TD*%
D11*
%TO.P,JP2,1*%
%TO.N,GND*%
X185000000Y-116000000D03*
%TD*%
D17*
%TO.P,J1,1*%
%TO.N,/L*%
X104000000Y-68000000D03*
D18*
%TO.P,J1,2*%
%TO.N,/N*%
X114000000Y-68000000D03*
%TD*%
D19*
%TO.P,C4,1*%
%TO.N,/V12*%
X155000000Y-122000000D03*
D13*
%TO.P,C4,2*%
%TO.N,GND*%
X160000000Y-122000000D03*
%TD*%
D20*
%TO.P,U1,1*%
%TO.N,/VRAW*%
X158000000Y-106000000D03*
D21*
%TO.P,U1,2*%
%TO.N,GND*%
X160540000Y-106000000D03*
%TO.P,U1,3*%
%TO.N,/V12*%
X163080000Y-106000000D03*
%TD*%
D14*
%TO.P,C3,1*%
%TO.N,/V12*%
X168000000Y-122000000D03*
%TO.P,C3,2*%
%TO.N,GND*%
X173000000Y-122000000D03*
%TD*%
D22*
%TO.P,D1,1*%
%TO.N,/VRAW*%
X112620000Y-100000000D03*
D23*
%TO.P,D1,2*%
%TO.N,/AC1*%
X105000000Y-100000000D03*
%TD*%
D22*
%TO.P,D2,1*%
%TO.N,/VRAW*%
X120000000Y-100000000D03*
D23*
%TO.P,D2,2*%
%TO.N,/AC2*%
X127620000Y-100000000D03*
%TD*%
D22*
%TO.P,D4,1*%
%TO.N,/AC2*%
X127620000Y-110000000D03*
D23*
%TO.P,D4,2*%
%TO.N,GND*%
X120000000Y-110000000D03*
%TD*%
D22*
%TO.P,D3,1*%
%TO.N,/AC1*%
X105000000Y-110000000D03*
D23*
%TO.P,D3,2*%
%TO.N,GND*%
X112620000Y-110000000D03*
%TD*%
D24*
%TO.N,/VRAW*%
X122000000Y-104000000D03*
X134000000Y-104000000D03*
%TD*%
D25*
%TO.N,/AC1*%
X105000000Y-100000000D02*
X105000000Y-110000000D01*
X139920000Y-93000000D02*
X105000000Y-93000000D01*
X105000000Y-93000000D02*
X105000000Y-100000000D01*
X139920000Y-89400000D02*
X139920000Y-93000000D01*
%TO.N,/AC2*%
X127620000Y-96000000D02*
X127620000Y-100000000D01*
X150080000Y-89400000D02*
X150080000Y-96000000D01*
X150080000Y-96000000D02*
X127620000Y-96000000D01*
X127620000Y-100000000D02*
X127620000Y-110000000D01*
D26*
%TO.N,/L*%
X124000000Y-77000000D02*
X124000000Y-82000000D01*
X104000000Y-68000000D02*
X104000000Y-76000000D01*
X124000000Y-76000000D02*
X124000000Y-77000000D01*
X104000000Y-76000000D02*
X124000000Y-76000000D01*
%TO.N,/L_F*%
X124000000Y-67000000D02*
X140000000Y-67000000D01*
X140000000Y-67000000D02*
X145000000Y-64000000D01*
X124000000Y-62000000D02*
X124000000Y-67000000D01*
%TO.N,/N*%
X165320000Y-57000000D02*
X165320000Y-64000000D01*
X114000000Y-68000000D02*
X114000000Y-57000000D01*
X114000000Y-57000000D02*
X165320000Y-57000000D01*
D25*
%TO.N,/V12*%
X150000000Y-112000000D02*
X150000000Y-122000000D01*
X168000000Y-117000000D02*
X168000000Y-122000000D01*
X163080000Y-112000000D02*
X150000000Y-112000000D01*
X175000000Y-106000000D02*
X185000000Y-104000000D01*
X163080000Y-106000000D02*
X163080000Y-112000000D01*
X150000000Y-122000000D02*
X155000000Y-122000000D01*
X163080000Y-112000000D02*
X168000000Y-117000000D01*
X163080000Y-106000000D02*
X175000000Y-106000000D01*
%TO.N,/VRAW*%
X139000000Y-102000000D02*
X155000000Y-102000000D01*
X137000000Y-106000000D02*
X137000000Y-120000000D01*
X137000000Y-106000000D02*
X139000000Y-102000000D01*
X134000000Y-104000000D02*
X137000000Y-106000000D01*
X155000000Y-102000000D02*
X158000000Y-106000000D01*
X112620000Y-100000000D02*
X120000000Y-100000000D01*
X120000000Y-100000000D02*
X122000000Y-104000000D01*
%TD*%
M02*
