%TF.GenerationSoftware,KiCad,Pcbnew,8.0.8*%
%TF.CreationDate,2026-09-25T14:42:59+02:00*%
%TF.ProjectId,Platine7812,506c6174-696e-4653-9738-31322e6b6963,rev?*%
%TF.SameCoordinates,Original*%
%TF.FileFunction,Legend,Top*%
%TF.FilePolarity,Positive*%
%FSLAX46Y46*%
G04 Gerber Fmt 4.6, Leading zero omitted, Abs format (unit mm)*
G04 Created by KiCad (PCBNEW 8.0.8) date 2026-09-25 14:42:59*
%MOMM*%
%LPD*%
G01*
G04 APERTURE LIST*
%ADD10C,0.199999*%
%ADD11C,0.142857*%
%ADD12C,0.185714*%
%ADD13C,0.150000*%
%ADD14C,0.120000*%
G04 APERTURE END LIST*
D10*
X102464911Y-129637266D02*
X102464911Y-128237266D01*
X102464911Y-128237266D02*
X103264911Y-129637266D01*
X103264911Y-129637266D02*
X103264911Y-128237266D01*
X104464911Y-129570600D02*
X104331578Y-129637266D01*
X104331578Y-129637266D02*
X104064911Y-129637266D01*
X104064911Y-129637266D02*
X103931578Y-129570600D01*
X103931578Y-129570600D02*
X103864911Y-129437266D01*
X103864911Y-129437266D02*
X103864911Y-128903933D01*
X103864911Y-128903933D02*
X103931578Y-128770600D01*
X103931578Y-128770600D02*
X104064911Y-128703933D01*
X104064911Y-128703933D02*
X104331578Y-128703933D01*
X104331578Y-128703933D02*
X104464911Y-128770600D01*
X104464911Y-128770600D02*
X104531578Y-128903933D01*
X104531578Y-128903933D02*
X104531578Y-129037266D01*
X104531578Y-129037266D02*
X103864911Y-129170600D01*
X104931578Y-128703933D02*
X105464911Y-128703933D01*
X105131578Y-128237266D02*
X105131578Y-129437266D01*
X105131578Y-129437266D02*
X105198245Y-129570600D01*
X105198245Y-129570600D02*
X105331578Y-129637266D01*
X105331578Y-129637266D02*
X105464911Y-129637266D01*
X105798245Y-128703933D02*
X106531578Y-128703933D01*
X106531578Y-128703933D02*
X105798245Y-129637266D01*
X105798245Y-129637266D02*
X106531578Y-129637266D01*
X106864911Y-128703933D02*
X107398244Y-128703933D01*
X107064911Y-128237266D02*
X107064911Y-129437266D01*
X107064911Y-129437266D02*
X107131578Y-129570600D01*
X107131578Y-129570600D02*
X107264911Y-129637266D01*
X107264911Y-129637266D02*
X107398244Y-129637266D01*
X108398244Y-129570600D02*
X108264911Y-129637266D01*
X108264911Y-129637266D02*
X107998244Y-129637266D01*
X107998244Y-129637266D02*
X107864911Y-129570600D01*
X107864911Y-129570600D02*
X107798244Y-129437266D01*
X107798244Y-129437266D02*
X107798244Y-128903933D01*
X107798244Y-128903933D02*
X107864911Y-128770600D01*
X107864911Y-128770600D02*
X107998244Y-128703933D01*
X107998244Y-128703933D02*
X108264911Y-128703933D01*
X108264911Y-128703933D02*
X108398244Y-128770600D01*
X108398244Y-128770600D02*
X108464911Y-128903933D01*
X108464911Y-128903933D02*
X108464911Y-129037266D01*
X108464911Y-129037266D02*
X107798244Y-129170600D01*
X109064911Y-129637266D02*
X109064911Y-128703933D01*
X109064911Y-128237266D02*
X108998244Y-128303933D01*
X108998244Y-128303933D02*
X109064911Y-128370600D01*
X109064911Y-128370600D02*
X109131578Y-128303933D01*
X109131578Y-128303933D02*
X109064911Y-128237266D01*
X109064911Y-128237266D02*
X109064911Y-128370600D01*
X109931578Y-129637266D02*
X109798245Y-129570600D01*
X109798245Y-129570600D02*
X109731578Y-129437266D01*
X109731578Y-129437266D02*
X109731578Y-128237266D01*
X111398245Y-128237266D02*
X112331578Y-128237266D01*
X112331578Y-128237266D02*
X111731578Y-129637266D01*
X113064911Y-128837266D02*
X112931578Y-128770600D01*
X112931578Y-128770600D02*
X112864911Y-128703933D01*
X112864911Y-128703933D02*
X112798244Y-128570600D01*
X112798244Y-128570600D02*
X112798244Y-128503933D01*
X112798244Y-128503933D02*
X112864911Y-128370600D01*
X112864911Y-128370600D02*
X112931578Y-128303933D01*
X112931578Y-128303933D02*
X113064911Y-128237266D01*
X113064911Y-128237266D02*
X113331578Y-128237266D01*
X113331578Y-128237266D02*
X113464911Y-128303933D01*
X113464911Y-128303933D02*
X113531578Y-128370600D01*
X113531578Y-128370600D02*
X113598244Y-128503933D01*
X113598244Y-128503933D02*
X113598244Y-128570600D01*
X113598244Y-128570600D02*
X113531578Y-128703933D01*
X113531578Y-128703933D02*
X113464911Y-128770600D01*
X113464911Y-128770600D02*
X113331578Y-128837266D01*
X113331578Y-128837266D02*
X113064911Y-128837266D01*
X113064911Y-128837266D02*
X112931578Y-128903933D01*
X112931578Y-128903933D02*
X112864911Y-128970600D01*
X112864911Y-128970600D02*
X112798244Y-129103933D01*
X112798244Y-129103933D02*
X112798244Y-129370600D01*
X112798244Y-129370600D02*
X112864911Y-129503933D01*
X112864911Y-129503933D02*
X112931578Y-129570600D01*
X112931578Y-129570600D02*
X113064911Y-129637266D01*
X113064911Y-129637266D02*
X113331578Y-129637266D01*
X113331578Y-129637266D02*
X113464911Y-129570600D01*
X113464911Y-129570600D02*
X113531578Y-129503933D01*
X113531578Y-129503933D02*
X113598244Y-129370600D01*
X113598244Y-129370600D02*
X113598244Y-129103933D01*
X113598244Y-129103933D02*
X113531578Y-128970600D01*
X113531578Y-128970600D02*
X113464911Y-128903933D01*
X113464911Y-128903933D02*
X113331578Y-128837266D01*
X114931577Y-129637266D02*
X114131577Y-129637266D01*
X114531577Y-129637266D02*
X114531577Y-128237266D01*
X114531577Y-128237266D02*
X114398244Y-128437266D01*
X114398244Y-128437266D02*
X114264911Y-128570600D01*
X114264911Y-128570600D02*
X114131577Y-128637266D01*
X115464910Y-128370600D02*
X115531577Y-128303933D01*
X115531577Y-128303933D02*
X115664910Y-128237266D01*
X115664910Y-128237266D02*
X115998244Y-128237266D01*
X115998244Y-128237266D02*
X116131577Y-128303933D01*
X116131577Y-128303933D02*
X116198244Y-128370600D01*
X116198244Y-128370600D02*
X116264910Y-128503933D01*
X116264910Y-128503933D02*
X116264910Y-128637266D01*
X116264910Y-128637266D02*
X116198244Y-128837266D01*
X116198244Y-128837266D02*
X115398244Y-129637266D01*
X115398244Y-129637266D02*
X116264910Y-129637266D01*
X118998244Y-129103933D02*
X120064911Y-129103933D01*
X123664911Y-129637266D02*
X123198244Y-128970600D01*
X122864911Y-129637266D02*
X122864911Y-128237266D01*
X122864911Y-128237266D02*
X123398244Y-128237266D01*
X123398244Y-128237266D02*
X123531578Y-128303933D01*
X123531578Y-128303933D02*
X123598244Y-128370600D01*
X123598244Y-128370600D02*
X123664911Y-128503933D01*
X123664911Y-128503933D02*
X123664911Y-128703933D01*
X123664911Y-128703933D02*
X123598244Y-128837266D01*
X123598244Y-128837266D02*
X123531578Y-128903933D01*
X123531578Y-128903933D02*
X123398244Y-128970600D01*
X123398244Y-128970600D02*
X122864911Y-128970600D01*
X124131578Y-128703933D02*
X124398244Y-129637266D01*
X124398244Y-129637266D02*
X124664911Y-128970600D01*
X124664911Y-128970600D02*
X124931578Y-129637266D01*
X124931578Y-129637266D02*
X125198244Y-128703933D01*
X125531578Y-128237266D02*
X126331578Y-128237266D01*
X125931578Y-129637266D02*
X125931578Y-128237266D01*
X127331578Y-129570600D02*
X127198245Y-129637266D01*
X127198245Y-129637266D02*
X126931578Y-129637266D01*
X126931578Y-129637266D02*
X126798245Y-129570600D01*
X126798245Y-129570600D02*
X126731578Y-129437266D01*
X126731578Y-129437266D02*
X126731578Y-128903933D01*
X126731578Y-128903933D02*
X126798245Y-128770600D01*
X126798245Y-128770600D02*
X126931578Y-128703933D01*
X126931578Y-128703933D02*
X127198245Y-128703933D01*
X127198245Y-128703933D02*
X127331578Y-128770600D01*
X127331578Y-128770600D02*
X127398245Y-128903933D01*
X127398245Y-128903933D02*
X127398245Y-129037266D01*
X127398245Y-129037266D02*
X126731578Y-129170600D01*
X128598245Y-129570600D02*
X128464912Y-129637266D01*
X128464912Y-129637266D02*
X128198245Y-129637266D01*
X128198245Y-129637266D02*
X128064912Y-129570600D01*
X128064912Y-129570600D02*
X127998245Y-129503933D01*
X127998245Y-129503933D02*
X127931578Y-129370600D01*
X127931578Y-129370600D02*
X127931578Y-128970600D01*
X127931578Y-128970600D02*
X127998245Y-128837266D01*
X127998245Y-128837266D02*
X128064912Y-128770600D01*
X128064912Y-128770600D02*
X128198245Y-128703933D01*
X128198245Y-128703933D02*
X128464912Y-128703933D01*
X128464912Y-128703933D02*
X128598245Y-128770600D01*
X131331579Y-129103933D02*
X132398246Y-129103933D01*
X135998246Y-129637266D02*
X135531579Y-128970600D01*
X135198246Y-129637266D02*
X135198246Y-128237266D01*
X135198246Y-128237266D02*
X135731579Y-128237266D01*
X135731579Y-128237266D02*
X135864913Y-128303933D01*
X135864913Y-128303933D02*
X135931579Y-128370600D01*
X135931579Y-128370600D02*
X135998246Y-128503933D01*
X135998246Y-128503933D02*
X135998246Y-128703933D01*
X135998246Y-128703933D02*
X135931579Y-128837266D01*
X135931579Y-128837266D02*
X135864913Y-128903933D01*
X135864913Y-128903933D02*
X135731579Y-128970600D01*
X135731579Y-128970600D02*
X135198246Y-128970600D01*
X137131579Y-129570600D02*
X136998246Y-129637266D01*
X136998246Y-129637266D02*
X136731579Y-129637266D01*
X136731579Y-129637266D02*
X136598246Y-129570600D01*
X136598246Y-129570600D02*
X136531579Y-129437266D01*
X136531579Y-129437266D02*
X136531579Y-128903933D01*
X136531579Y-128903933D02*
X136598246Y-128770600D01*
X136598246Y-128770600D02*
X136731579Y-128703933D01*
X136731579Y-128703933D02*
X136998246Y-128703933D01*
X136998246Y-128703933D02*
X137131579Y-128770600D01*
X137131579Y-128770600D02*
X137198246Y-128903933D01*
X137198246Y-128903933D02*
X137198246Y-129037266D01*
X137198246Y-129037266D02*
X136531579Y-129170600D01*
X137664913Y-128703933D02*
X137998246Y-129637266D01*
X137998246Y-129637266D02*
X138331579Y-128703933D01*
X139864913Y-129237266D02*
X140531580Y-129237266D01*
X139731580Y-129637266D02*
X140198247Y-128237266D01*
X140198247Y-128237266D02*
X140664913Y-129637266D01*
D11*
X102284460Y-79050428D02*
X102332079Y-79002809D01*
X102332079Y-79002809D02*
X102427317Y-78955190D01*
X102427317Y-78955190D02*
X102665412Y-78955190D01*
X102665412Y-78955190D02*
X102760650Y-79002809D01*
X102760650Y-79002809D02*
X102808269Y-79050428D01*
X102808269Y-79050428D02*
X102855888Y-79145666D01*
X102855888Y-79145666D02*
X102855888Y-79240904D01*
X102855888Y-79240904D02*
X102808269Y-79383761D01*
X102808269Y-79383761D02*
X102236841Y-79955190D01*
X102236841Y-79955190D02*
X102855888Y-79955190D01*
X103189222Y-78955190D02*
X103808269Y-78955190D01*
X103808269Y-78955190D02*
X103474936Y-79336142D01*
X103474936Y-79336142D02*
X103617793Y-79336142D01*
X103617793Y-79336142D02*
X103713031Y-79383761D01*
X103713031Y-79383761D02*
X103760650Y-79431380D01*
X103760650Y-79431380D02*
X103808269Y-79526618D01*
X103808269Y-79526618D02*
X103808269Y-79764713D01*
X103808269Y-79764713D02*
X103760650Y-79859951D01*
X103760650Y-79859951D02*
X103713031Y-79907571D01*
X103713031Y-79907571D02*
X103617793Y-79955190D01*
X103617793Y-79955190D02*
X103332079Y-79955190D01*
X103332079Y-79955190D02*
X103236841Y-79907571D01*
X103236841Y-79907571D02*
X103189222Y-79859951D01*
X104427317Y-78955190D02*
X104522555Y-78955190D01*
X104522555Y-78955190D02*
X104617793Y-79002809D01*
X104617793Y-79002809D02*
X104665412Y-79050428D01*
X104665412Y-79050428D02*
X104713031Y-79145666D01*
X104713031Y-79145666D02*
X104760650Y-79336142D01*
X104760650Y-79336142D02*
X104760650Y-79574237D01*
X104760650Y-79574237D02*
X104713031Y-79764713D01*
X104713031Y-79764713D02*
X104665412Y-79859951D01*
X104665412Y-79859951D02*
X104617793Y-79907571D01*
X104617793Y-79907571D02*
X104522555Y-79955190D01*
X104522555Y-79955190D02*
X104427317Y-79955190D01*
X104427317Y-79955190D02*
X104332079Y-79907571D01*
X104332079Y-79907571D02*
X104284460Y-79859951D01*
X104284460Y-79859951D02*
X104236841Y-79764713D01*
X104236841Y-79764713D02*
X104189222Y-79574237D01*
X104189222Y-79574237D02*
X104189222Y-79336142D01*
X104189222Y-79336142D02*
X104236841Y-79145666D01*
X104236841Y-79145666D02*
X104284460Y-79050428D01*
X104284460Y-79050428D02*
X104332079Y-79002809D01*
X104332079Y-79002809D02*
X104427317Y-78955190D01*
X105046365Y-78955190D02*
X105379698Y-79955190D01*
X105379698Y-79955190D02*
X105713031Y-78955190D01*
X105903508Y-79574237D02*
X105951127Y-79526618D01*
X105951127Y-79526618D02*
X106046365Y-79478999D01*
X106046365Y-79478999D02*
X106236841Y-79574237D01*
X106236841Y-79574237D02*
X106332079Y-79526618D01*
X106332079Y-79526618D02*
X106379698Y-79478999D01*
X107998746Y-79955190D02*
X107522556Y-79955190D01*
X107522556Y-79955190D02*
X107522556Y-78955190D01*
X108332080Y-79431380D02*
X108665413Y-79431380D01*
X108808270Y-79955190D02*
X108332080Y-79955190D01*
X108332080Y-79955190D02*
X108332080Y-78955190D01*
X108332080Y-78955190D02*
X108808270Y-78955190D01*
X109570175Y-79431380D02*
X109713032Y-79478999D01*
X109713032Y-79478999D02*
X109760651Y-79526618D01*
X109760651Y-79526618D02*
X109808270Y-79621856D01*
X109808270Y-79621856D02*
X109808270Y-79764713D01*
X109808270Y-79764713D02*
X109760651Y-79859951D01*
X109760651Y-79859951D02*
X109713032Y-79907571D01*
X109713032Y-79907571D02*
X109617794Y-79955190D01*
X109617794Y-79955190D02*
X109236842Y-79955190D01*
X109236842Y-79955190D02*
X109236842Y-78955190D01*
X109236842Y-78955190D02*
X109570175Y-78955190D01*
X109570175Y-78955190D02*
X109665413Y-79002809D01*
X109665413Y-79002809D02*
X109713032Y-79050428D01*
X109713032Y-79050428D02*
X109760651Y-79145666D01*
X109760651Y-79145666D02*
X109760651Y-79240904D01*
X109760651Y-79240904D02*
X109713032Y-79336142D01*
X109713032Y-79336142D02*
X109665413Y-79383761D01*
X109665413Y-79383761D02*
X109570175Y-79431380D01*
X109570175Y-79431380D02*
X109236842Y-79431380D01*
X110236842Y-79431380D02*
X110570175Y-79431380D01*
X110713032Y-79955190D02*
X110236842Y-79955190D01*
X110236842Y-79955190D02*
X110236842Y-78955190D01*
X110236842Y-78955190D02*
X110713032Y-78955190D01*
X111141604Y-79955190D02*
X111141604Y-78955190D01*
X111141604Y-78955190D02*
X111713032Y-79955190D01*
X111713032Y-79955190D02*
X111713032Y-78955190D01*
X112141604Y-79907571D02*
X112284461Y-79955190D01*
X112284461Y-79955190D02*
X112522556Y-79955190D01*
X112522556Y-79955190D02*
X112617794Y-79907571D01*
X112617794Y-79907571D02*
X112665413Y-79859951D01*
X112665413Y-79859951D02*
X112713032Y-79764713D01*
X112713032Y-79764713D02*
X112713032Y-79669475D01*
X112713032Y-79669475D02*
X112665413Y-79574237D01*
X112665413Y-79574237D02*
X112617794Y-79526618D01*
X112617794Y-79526618D02*
X112522556Y-79478999D01*
X112522556Y-79478999D02*
X112332080Y-79431380D01*
X112332080Y-79431380D02*
X112236842Y-79383761D01*
X112236842Y-79383761D02*
X112189223Y-79336142D01*
X112189223Y-79336142D02*
X112141604Y-79240904D01*
X112141604Y-79240904D02*
X112141604Y-79145666D01*
X112141604Y-79145666D02*
X112189223Y-79050428D01*
X112189223Y-79050428D02*
X112236842Y-79002809D01*
X112236842Y-79002809D02*
X112332080Y-78955190D01*
X112332080Y-78955190D02*
X112570175Y-78955190D01*
X112570175Y-78955190D02*
X112713032Y-79002809D01*
X113665413Y-79002809D02*
X113570175Y-78955190D01*
X113570175Y-78955190D02*
X113427318Y-78955190D01*
X113427318Y-78955190D02*
X113284461Y-79002809D01*
X113284461Y-79002809D02*
X113189223Y-79098047D01*
X113189223Y-79098047D02*
X113141604Y-79193285D01*
X113141604Y-79193285D02*
X113093985Y-79383761D01*
X113093985Y-79383761D02*
X113093985Y-79526618D01*
X113093985Y-79526618D02*
X113141604Y-79717094D01*
X113141604Y-79717094D02*
X113189223Y-79812332D01*
X113189223Y-79812332D02*
X113284461Y-79907571D01*
X113284461Y-79907571D02*
X113427318Y-79955190D01*
X113427318Y-79955190D02*
X113522556Y-79955190D01*
X113522556Y-79955190D02*
X113665413Y-79907571D01*
X113665413Y-79907571D02*
X113713032Y-79859951D01*
X113713032Y-79859951D02*
X113713032Y-79526618D01*
X113713032Y-79526618D02*
X113522556Y-79526618D01*
X114141604Y-79431380D02*
X114474937Y-79431380D01*
X114617794Y-79955190D02*
X114141604Y-79955190D01*
X114141604Y-79955190D02*
X114141604Y-78955190D01*
X114141604Y-78955190D02*
X114617794Y-78955190D01*
X115379699Y-79431380D02*
X115046366Y-79431380D01*
X115046366Y-79955190D02*
X115046366Y-78955190D01*
X115046366Y-78955190D02*
X115522556Y-78955190D01*
X115855890Y-79669475D02*
X116332080Y-79669475D01*
X115760652Y-79955190D02*
X116093985Y-78955190D01*
X116093985Y-78955190D02*
X116427318Y-79955190D01*
X116760652Y-79955190D02*
X116760652Y-78955190D01*
X116760652Y-79431380D02*
X117332080Y-79431380D01*
X117332080Y-79955190D02*
X117332080Y-78955190D01*
X118379699Y-79955190D02*
X118046366Y-79478999D01*
X117808271Y-79955190D02*
X117808271Y-78955190D01*
X117808271Y-78955190D02*
X118189223Y-78955190D01*
X118189223Y-78955190D02*
X118284461Y-79002809D01*
X118284461Y-79002809D02*
X118332080Y-79050428D01*
X118332080Y-79050428D02*
X118379699Y-79145666D01*
X118379699Y-79145666D02*
X118379699Y-79288523D01*
X118379699Y-79288523D02*
X118332080Y-79383761D01*
X118332080Y-79383761D02*
X118284461Y-79431380D01*
X118284461Y-79431380D02*
X118189223Y-79478999D01*
X118189223Y-79478999D02*
X117808271Y-79478999D01*
D12*
X102369799Y-89029842D02*
X102555513Y-89091746D01*
X102555513Y-89091746D02*
X102865037Y-89091746D01*
X102865037Y-89091746D02*
X102988846Y-89029842D01*
X102988846Y-89029842D02*
X103050751Y-88967937D01*
X103050751Y-88967937D02*
X103112656Y-88844127D01*
X103112656Y-88844127D02*
X103112656Y-88720318D01*
X103112656Y-88720318D02*
X103050751Y-88596508D01*
X103050751Y-88596508D02*
X102988846Y-88534603D01*
X102988846Y-88534603D02*
X102865037Y-88472699D01*
X102865037Y-88472699D02*
X102617418Y-88410794D01*
X102617418Y-88410794D02*
X102493608Y-88348889D01*
X102493608Y-88348889D02*
X102431703Y-88286984D01*
X102431703Y-88286984D02*
X102369799Y-88163175D01*
X102369799Y-88163175D02*
X102369799Y-88039365D01*
X102369799Y-88039365D02*
X102431703Y-87915556D01*
X102431703Y-87915556D02*
X102493608Y-87853651D01*
X102493608Y-87853651D02*
X102617418Y-87791746D01*
X102617418Y-87791746D02*
X102926941Y-87791746D01*
X102926941Y-87791746D02*
X103112656Y-87853651D01*
X103669798Y-88410794D02*
X104103132Y-88410794D01*
X104288846Y-89091746D02*
X103669798Y-89091746D01*
X103669798Y-89091746D02*
X103669798Y-87791746D01*
X103669798Y-87791746D02*
X104288846Y-87791746D01*
X104845988Y-89091746D02*
X104845988Y-87791746D01*
X105588845Y-89091746D02*
X105031703Y-88348889D01*
X105588845Y-87791746D02*
X104845988Y-88534603D01*
X106145988Y-87791746D02*
X106145988Y-88844127D01*
X106145988Y-88844127D02*
X106207893Y-88967937D01*
X106207893Y-88967937D02*
X106269798Y-89029842D01*
X106269798Y-89029842D02*
X106393607Y-89091746D01*
X106393607Y-89091746D02*
X106641226Y-89091746D01*
X106641226Y-89091746D02*
X106765036Y-89029842D01*
X106765036Y-89029842D02*
X106826941Y-88967937D01*
X106826941Y-88967937D02*
X106888845Y-88844127D01*
X106888845Y-88844127D02*
X106888845Y-87791746D01*
X107507893Y-89091746D02*
X107507893Y-87791746D01*
X107507893Y-87791746D02*
X108250750Y-89091746D01*
X108250750Y-89091746D02*
X108250750Y-87791746D01*
X108869798Y-89091746D02*
X108869798Y-87791746D01*
X108869798Y-87791746D02*
X109179322Y-87791746D01*
X109179322Y-87791746D02*
X109365036Y-87853651D01*
X109365036Y-87853651D02*
X109488846Y-87977461D01*
X109488846Y-87977461D02*
X109550751Y-88101270D01*
X109550751Y-88101270D02*
X109612655Y-88348889D01*
X109612655Y-88348889D02*
X109612655Y-88534603D01*
X109612655Y-88534603D02*
X109550751Y-88782222D01*
X109550751Y-88782222D02*
X109488846Y-88906032D01*
X109488846Y-88906032D02*
X109365036Y-89029842D01*
X109365036Y-89029842D02*
X109179322Y-89091746D01*
X109179322Y-89091746D02*
X108869798Y-89091746D01*
X110107894Y-88720318D02*
X110726941Y-88720318D01*
X109984084Y-89091746D02*
X110417417Y-87791746D01*
X110417417Y-87791746D02*
X110850751Y-89091746D01*
X111284084Y-88410794D02*
X111717418Y-88410794D01*
X111903132Y-89091746D02*
X111284084Y-89091746D01*
X111284084Y-89091746D02*
X111284084Y-87791746D01*
X111284084Y-87791746D02*
X111903132Y-87791746D01*
X113203131Y-89091746D02*
X112769798Y-88472699D01*
X112460274Y-89091746D02*
X112460274Y-87791746D01*
X112460274Y-87791746D02*
X112955512Y-87791746D01*
X112955512Y-87791746D02*
X113079322Y-87853651D01*
X113079322Y-87853651D02*
X113141227Y-87915556D01*
X113141227Y-87915556D02*
X113203131Y-88039365D01*
X113203131Y-88039365D02*
X113203131Y-88225080D01*
X113203131Y-88225080D02*
X113141227Y-88348889D01*
X113141227Y-88348889D02*
X113079322Y-88410794D01*
X113079322Y-88410794D02*
X112955512Y-88472699D01*
X112955512Y-88472699D02*
X112460274Y-88472699D01*
X114750750Y-88596508D02*
X115741227Y-88596508D01*
X115245988Y-89091746D02*
X115245988Y-88101270D01*
X117041227Y-89091746D02*
X116298370Y-89091746D01*
X116669798Y-89091746D02*
X116669798Y-87791746D01*
X116669798Y-87791746D02*
X116545989Y-87977461D01*
X116545989Y-87977461D02*
X116422179Y-88101270D01*
X116422179Y-88101270D02*
X116298370Y-88163175D01*
X117536465Y-87915556D02*
X117598369Y-87853651D01*
X117598369Y-87853651D02*
X117722179Y-87791746D01*
X117722179Y-87791746D02*
X118031703Y-87791746D01*
X118031703Y-87791746D02*
X118155512Y-87853651D01*
X118155512Y-87853651D02*
X118217417Y-87915556D01*
X118217417Y-87915556D02*
X118279322Y-88039365D01*
X118279322Y-88039365D02*
X118279322Y-88163175D01*
X118279322Y-88163175D02*
X118217417Y-88348889D01*
X118217417Y-88348889D02*
X117474560Y-89091746D01*
X117474560Y-89091746D02*
X118279322Y-89091746D01*
X118650750Y-87791746D02*
X119084083Y-89091746D01*
X119084083Y-89091746D02*
X119517417Y-87791746D01*
X120879322Y-89029842D02*
X121065036Y-89091746D01*
X121065036Y-89091746D02*
X121374560Y-89091746D01*
X121374560Y-89091746D02*
X121498369Y-89029842D01*
X121498369Y-89029842D02*
X121560274Y-88967937D01*
X121560274Y-88967937D02*
X121622179Y-88844127D01*
X121622179Y-88844127D02*
X121622179Y-88720318D01*
X121622179Y-88720318D02*
X121560274Y-88596508D01*
X121560274Y-88596508D02*
X121498369Y-88534603D01*
X121498369Y-88534603D02*
X121374560Y-88472699D01*
X121374560Y-88472699D02*
X121126941Y-88410794D01*
X121126941Y-88410794D02*
X121003131Y-88348889D01*
X121003131Y-88348889D02*
X120941226Y-88286984D01*
X120941226Y-88286984D02*
X120879322Y-88163175D01*
X120879322Y-88163175D02*
X120879322Y-88039365D01*
X120879322Y-88039365D02*
X120941226Y-87915556D01*
X120941226Y-87915556D02*
X121003131Y-87853651D01*
X121003131Y-87853651D02*
X121126941Y-87791746D01*
X121126941Y-87791746D02*
X121436464Y-87791746D01*
X121436464Y-87791746D02*
X121622179Y-87853651D01*
X122179321Y-88410794D02*
X122612655Y-88410794D01*
X122798369Y-89091746D02*
X122179321Y-89091746D01*
X122179321Y-89091746D02*
X122179321Y-87791746D01*
X122179321Y-87791746D02*
X122798369Y-87791746D01*
X123974559Y-89091746D02*
X123355511Y-89091746D01*
X123355511Y-89091746D02*
X123355511Y-87791746D01*
X124222178Y-87791746D02*
X124655511Y-89091746D01*
X124655511Y-89091746D02*
X125088845Y-87791746D01*
D13*
X146397381Y-77309726D02*
X147123095Y-77309726D01*
X146760238Y-78579726D02*
X146760238Y-77309726D01*
X148272143Y-78579726D02*
X147848809Y-77974964D01*
X147546428Y-78579726D02*
X147546428Y-77309726D01*
X147546428Y-77309726D02*
X148030238Y-77309726D01*
X148030238Y-77309726D02*
X148151190Y-77370202D01*
X148151190Y-77370202D02*
X148211667Y-77430678D01*
X148211667Y-77430678D02*
X148272143Y-77551630D01*
X148272143Y-77551630D02*
X148272143Y-77733059D01*
X148272143Y-77733059D02*
X148211667Y-77854011D01*
X148211667Y-77854011D02*
X148151190Y-77914488D01*
X148151190Y-77914488D02*
X148030238Y-77974964D01*
X148030238Y-77974964D02*
X147546428Y-77974964D01*
X149481667Y-78579726D02*
X148755952Y-78579726D01*
X149118809Y-78579726D02*
X149118809Y-77309726D01*
X149118809Y-77309726D02*
X148997857Y-77491154D01*
X148997857Y-77491154D02*
X148876905Y-77612107D01*
X148876905Y-77612107D02*
X148755952Y-77672583D01*
X184166666Y-101124819D02*
X184166666Y-101839104D01*
X184166666Y-101839104D02*
X184119047Y-101981961D01*
X184119047Y-101981961D02*
X184023809Y-102077200D01*
X184023809Y-102077200D02*
X183880952Y-102124819D01*
X183880952Y-102124819D02*
X183785714Y-102124819D01*
X184642857Y-102124819D02*
X184642857Y-101124819D01*
X184642857Y-101124819D02*
X185023809Y-101124819D01*
X185023809Y-101124819D02*
X185119047Y-101172438D01*
X185119047Y-101172438D02*
X185166666Y-101220057D01*
X185166666Y-101220057D02*
X185214285Y-101315295D01*
X185214285Y-101315295D02*
X185214285Y-101458152D01*
X185214285Y-101458152D02*
X185166666Y-101553390D01*
X185166666Y-101553390D02*
X185119047Y-101601009D01*
X185119047Y-101601009D02*
X185023809Y-101648628D01*
X185023809Y-101648628D02*
X184642857Y-101648628D01*
X186166666Y-102124819D02*
X185595238Y-102124819D01*
X185880952Y-102124819D02*
X185880952Y-101124819D01*
X185880952Y-101124819D02*
X185785714Y-101267676D01*
X185785714Y-101267676D02*
X185690476Y-101362914D01*
X185690476Y-101362914D02*
X185595238Y-101410533D01*
X120431009Y-72333333D02*
X120431009Y-72666666D01*
X120954819Y-72666666D02*
X119954819Y-72666666D01*
X119954819Y-72666666D02*
X119954819Y-72190476D01*
X120954819Y-71285714D02*
X120954819Y-71857142D01*
X120954819Y-71571428D02*
X119954819Y-71571428D01*
X119954819Y-71571428D02*
X120097676Y-71666666D01*
X120097676Y-71666666D02*
X120192914Y-71761904D01*
X120192914Y-71761904D02*
X120240533Y-71857142D01*
X139333333Y-117859580D02*
X139285714Y-117907200D01*
X139285714Y-117907200D02*
X139142857Y-117954819D01*
X139142857Y-117954819D02*
X139047619Y-117954819D01*
X139047619Y-117954819D02*
X138904762Y-117907200D01*
X138904762Y-117907200D02*
X138809524Y-117811961D01*
X138809524Y-117811961D02*
X138761905Y-117716723D01*
X138761905Y-117716723D02*
X138714286Y-117526247D01*
X138714286Y-117526247D02*
X138714286Y-117383390D01*
X138714286Y-117383390D02*
X138761905Y-117192914D01*
X138761905Y-117192914D02*
X138809524Y-117097676D01*
X138809524Y-117097676D02*
X138904762Y-117002438D01*
X138904762Y-117002438D02*
X139047619Y-116954819D01*
X139047619Y-116954819D02*
X139142857Y-116954819D01*
X139142857Y-116954819D02*
X139285714Y-117002438D01*
X139285714Y-117002438D02*
X139333333Y-117050057D01*
X139714286Y-117050057D02*
X139761905Y-117002438D01*
X139761905Y-117002438D02*
X139857143Y-116954819D01*
X139857143Y-116954819D02*
X140095238Y-116954819D01*
X140095238Y-116954819D02*
X140190476Y-117002438D01*
X140190476Y-117002438D02*
X140238095Y-117050057D01*
X140238095Y-117050057D02*
X140285714Y-117145295D01*
X140285714Y-117145295D02*
X140285714Y-117240533D01*
X140285714Y-117240533D02*
X140238095Y-117383390D01*
X140238095Y-117383390D02*
X139666667Y-117954819D01*
X139666667Y-117954819D02*
X140285714Y-117954819D01*
X140583333Y-97109580D02*
X140535714Y-97157200D01*
X140535714Y-97157200D02*
X140392857Y-97204819D01*
X140392857Y-97204819D02*
X140297619Y-97204819D01*
X140297619Y-97204819D02*
X140154762Y-97157200D01*
X140154762Y-97157200D02*
X140059524Y-97061961D01*
X140059524Y-97061961D02*
X140011905Y-96966723D01*
X140011905Y-96966723D02*
X139964286Y-96776247D01*
X139964286Y-96776247D02*
X139964286Y-96633390D01*
X139964286Y-96633390D02*
X140011905Y-96442914D01*
X140011905Y-96442914D02*
X140059524Y-96347676D01*
X140059524Y-96347676D02*
X140154762Y-96252438D01*
X140154762Y-96252438D02*
X140297619Y-96204819D01*
X140297619Y-96204819D02*
X140392857Y-96204819D01*
X140392857Y-96204819D02*
X140535714Y-96252438D01*
X140535714Y-96252438D02*
X140583333Y-96300057D01*
X141535714Y-97204819D02*
X140964286Y-97204819D01*
X141250000Y-97204819D02*
X141250000Y-96204819D01*
X141250000Y-96204819D02*
X141154762Y-96347676D01*
X141154762Y-96347676D02*
X141059524Y-96442914D01*
X141059524Y-96442914D02*
X140964286Y-96490533D01*
X184166666Y-113124819D02*
X184166666Y-113839104D01*
X184166666Y-113839104D02*
X184119047Y-113981961D01*
X184119047Y-113981961D02*
X184023809Y-114077200D01*
X184023809Y-114077200D02*
X183880952Y-114124819D01*
X183880952Y-114124819D02*
X183785714Y-114124819D01*
X184642857Y-114124819D02*
X184642857Y-113124819D01*
X184642857Y-113124819D02*
X185023809Y-113124819D01*
X185023809Y-113124819D02*
X185119047Y-113172438D01*
X185119047Y-113172438D02*
X185166666Y-113220057D01*
X185166666Y-113220057D02*
X185214285Y-113315295D01*
X185214285Y-113315295D02*
X185214285Y-113458152D01*
X185214285Y-113458152D02*
X185166666Y-113553390D01*
X185166666Y-113553390D02*
X185119047Y-113601009D01*
X185119047Y-113601009D02*
X185023809Y-113648628D01*
X185023809Y-113648628D02*
X184642857Y-113648628D01*
X185595238Y-113220057D02*
X185642857Y-113172438D01*
X185642857Y-113172438D02*
X185738095Y-113124819D01*
X185738095Y-113124819D02*
X185976190Y-113124819D01*
X185976190Y-113124819D02*
X186071428Y-113172438D01*
X186071428Y-113172438D02*
X186119047Y-113220057D01*
X186119047Y-113220057D02*
X186166666Y-113315295D01*
X186166666Y-113315295D02*
X186166666Y-113410533D01*
X186166666Y-113410533D02*
X186119047Y-113553390D01*
X186119047Y-113553390D02*
X185547619Y-114124819D01*
X185547619Y-114124819D02*
X186166666Y-114124819D01*
X108666666Y-61394819D02*
X108666666Y-62109104D01*
X108666666Y-62109104D02*
X108619047Y-62251961D01*
X108619047Y-62251961D02*
X108523809Y-62347200D01*
X108523809Y-62347200D02*
X108380952Y-62394819D01*
X108380952Y-62394819D02*
X108285714Y-62394819D01*
X109666666Y-62394819D02*
X109095238Y-62394819D01*
X109380952Y-62394819D02*
X109380952Y-61394819D01*
X109380952Y-61394819D02*
X109285714Y-61537676D01*
X109285714Y-61537676D02*
X109190476Y-61632914D01*
X109190476Y-61632914D02*
X109095238Y-61680533D01*
X157333333Y-116109580D02*
X157285714Y-116157200D01*
X157285714Y-116157200D02*
X157142857Y-116204819D01*
X157142857Y-116204819D02*
X157047619Y-116204819D01*
X157047619Y-116204819D02*
X156904762Y-116157200D01*
X156904762Y-116157200D02*
X156809524Y-116061961D01*
X156809524Y-116061961D02*
X156761905Y-115966723D01*
X156761905Y-115966723D02*
X156714286Y-115776247D01*
X156714286Y-115776247D02*
X156714286Y-115633390D01*
X156714286Y-115633390D02*
X156761905Y-115442914D01*
X156761905Y-115442914D02*
X156809524Y-115347676D01*
X156809524Y-115347676D02*
X156904762Y-115252438D01*
X156904762Y-115252438D02*
X157047619Y-115204819D01*
X157047619Y-115204819D02*
X157142857Y-115204819D01*
X157142857Y-115204819D02*
X157285714Y-115252438D01*
X157285714Y-115252438D02*
X157333333Y-115300057D01*
X158190476Y-115538152D02*
X158190476Y-116204819D01*
X157952381Y-115157200D02*
X157714286Y-115871485D01*
X157714286Y-115871485D02*
X158333333Y-115871485D01*
X159778095Y-101184819D02*
X159778095Y-101994342D01*
X159778095Y-101994342D02*
X159825714Y-102089580D01*
X159825714Y-102089580D02*
X159873333Y-102137200D01*
X159873333Y-102137200D02*
X159968571Y-102184819D01*
X159968571Y-102184819D02*
X160159047Y-102184819D01*
X160159047Y-102184819D02*
X160254285Y-102137200D01*
X160254285Y-102137200D02*
X160301904Y-102089580D01*
X160301904Y-102089580D02*
X160349523Y-101994342D01*
X160349523Y-101994342D02*
X160349523Y-101184819D01*
X161349523Y-102184819D02*
X160778095Y-102184819D01*
X161063809Y-102184819D02*
X161063809Y-101184819D01*
X161063809Y-101184819D02*
X160968571Y-101327676D01*
X160968571Y-101327676D02*
X160873333Y-101422914D01*
X160873333Y-101422914D02*
X160778095Y-101470533D01*
X170333333Y-119859580D02*
X170285714Y-119907200D01*
X170285714Y-119907200D02*
X170142857Y-119954819D01*
X170142857Y-119954819D02*
X170047619Y-119954819D01*
X170047619Y-119954819D02*
X169904762Y-119907200D01*
X169904762Y-119907200D02*
X169809524Y-119811961D01*
X169809524Y-119811961D02*
X169761905Y-119716723D01*
X169761905Y-119716723D02*
X169714286Y-119526247D01*
X169714286Y-119526247D02*
X169714286Y-119383390D01*
X169714286Y-119383390D02*
X169761905Y-119192914D01*
X169761905Y-119192914D02*
X169809524Y-119097676D01*
X169809524Y-119097676D02*
X169904762Y-119002438D01*
X169904762Y-119002438D02*
X170047619Y-118954819D01*
X170047619Y-118954819D02*
X170142857Y-118954819D01*
X170142857Y-118954819D02*
X170285714Y-119002438D01*
X170285714Y-119002438D02*
X170333333Y-119050057D01*
X170666667Y-118954819D02*
X171285714Y-118954819D01*
X171285714Y-118954819D02*
X170952381Y-119335771D01*
X170952381Y-119335771D02*
X171095238Y-119335771D01*
X171095238Y-119335771D02*
X171190476Y-119383390D01*
X171190476Y-119383390D02*
X171238095Y-119431009D01*
X171238095Y-119431009D02*
X171285714Y-119526247D01*
X171285714Y-119526247D02*
X171285714Y-119764342D01*
X171285714Y-119764342D02*
X171238095Y-119859580D01*
X171238095Y-119859580D02*
X171190476Y-119907200D01*
X171190476Y-119907200D02*
X171095238Y-119954819D01*
X171095238Y-119954819D02*
X170809524Y-119954819D01*
X170809524Y-119954819D02*
X170714286Y-119907200D01*
X170714286Y-119907200D02*
X170666667Y-119859580D01*
X108071905Y-102924819D02*
X108071905Y-101924819D01*
X108071905Y-101924819D02*
X108310000Y-101924819D01*
X108310000Y-101924819D02*
X108452857Y-101972438D01*
X108452857Y-101972438D02*
X108548095Y-102067676D01*
X108548095Y-102067676D02*
X108595714Y-102162914D01*
X108595714Y-102162914D02*
X108643333Y-102353390D01*
X108643333Y-102353390D02*
X108643333Y-102496247D01*
X108643333Y-102496247D02*
X108595714Y-102686723D01*
X108595714Y-102686723D02*
X108548095Y-102781961D01*
X108548095Y-102781961D02*
X108452857Y-102877200D01*
X108452857Y-102877200D02*
X108310000Y-102924819D01*
X108310000Y-102924819D02*
X108071905Y-102924819D01*
X109595714Y-102924819D02*
X109024286Y-102924819D01*
X109310000Y-102924819D02*
X109310000Y-101924819D01*
X109310000Y-101924819D02*
X109214762Y-102067676D01*
X109214762Y-102067676D02*
X109119524Y-102162914D01*
X109119524Y-102162914D02*
X109024286Y-102210533D01*
X112358095Y-102554819D02*
X112358095Y-101554819D01*
X112929523Y-102554819D02*
X112500952Y-101983390D01*
X112929523Y-101554819D02*
X112358095Y-102126247D01*
X123071905Y-97984819D02*
X123071905Y-96984819D01*
X123071905Y-96984819D02*
X123310000Y-96984819D01*
X123310000Y-96984819D02*
X123452857Y-97032438D01*
X123452857Y-97032438D02*
X123548095Y-97127676D01*
X123548095Y-97127676D02*
X123595714Y-97222914D01*
X123595714Y-97222914D02*
X123643333Y-97413390D01*
X123643333Y-97413390D02*
X123643333Y-97556247D01*
X123643333Y-97556247D02*
X123595714Y-97746723D01*
X123595714Y-97746723D02*
X123548095Y-97841961D01*
X123548095Y-97841961D02*
X123452857Y-97937200D01*
X123452857Y-97937200D02*
X123310000Y-97984819D01*
X123310000Y-97984819D02*
X123071905Y-97984819D01*
X124024286Y-97080057D02*
X124071905Y-97032438D01*
X124071905Y-97032438D02*
X124167143Y-96984819D01*
X124167143Y-96984819D02*
X124405238Y-96984819D01*
X124405238Y-96984819D02*
X124500476Y-97032438D01*
X124500476Y-97032438D02*
X124548095Y-97080057D01*
X124548095Y-97080057D02*
X124595714Y-97175295D01*
X124595714Y-97175295D02*
X124595714Y-97270533D01*
X124595714Y-97270533D02*
X124548095Y-97413390D01*
X124548095Y-97413390D02*
X123976667Y-97984819D01*
X123976667Y-97984819D02*
X124595714Y-97984819D01*
X119738095Y-98354819D02*
X119738095Y-97354819D01*
X120309523Y-98354819D02*
X119880952Y-97783390D01*
X120309523Y-97354819D02*
X119738095Y-97926247D01*
X123071905Y-112924819D02*
X123071905Y-111924819D01*
X123071905Y-111924819D02*
X123310000Y-111924819D01*
X123310000Y-111924819D02*
X123452857Y-111972438D01*
X123452857Y-111972438D02*
X123548095Y-112067676D01*
X123548095Y-112067676D02*
X123595714Y-112162914D01*
X123595714Y-112162914D02*
X123643333Y-112353390D01*
X123643333Y-112353390D02*
X123643333Y-112496247D01*
X123643333Y-112496247D02*
X123595714Y-112686723D01*
X123595714Y-112686723D02*
X123548095Y-112781961D01*
X123548095Y-112781961D02*
X123452857Y-112877200D01*
X123452857Y-112877200D02*
X123310000Y-112924819D01*
X123310000Y-112924819D02*
X123071905Y-112924819D01*
X124500476Y-112258152D02*
X124500476Y-112924819D01*
X124262381Y-111877200D02*
X124024286Y-112591485D01*
X124024286Y-112591485D02*
X124643333Y-112591485D01*
X127358095Y-112554819D02*
X127358095Y-111554819D01*
X127929523Y-112554819D02*
X127500952Y-111983390D01*
X127929523Y-111554819D02*
X127358095Y-112126247D01*
X108071905Y-107984819D02*
X108071905Y-106984819D01*
X108071905Y-106984819D02*
X108310000Y-106984819D01*
X108310000Y-106984819D02*
X108452857Y-107032438D01*
X108452857Y-107032438D02*
X108548095Y-107127676D01*
X108548095Y-107127676D02*
X108595714Y-107222914D01*
X108595714Y-107222914D02*
X108643333Y-107413390D01*
X108643333Y-107413390D02*
X108643333Y-107556247D01*
X108643333Y-107556247D02*
X108595714Y-107746723D01*
X108595714Y-107746723D02*
X108548095Y-107841961D01*
X108548095Y-107841961D02*
X108452857Y-107937200D01*
X108452857Y-107937200D02*
X108310000Y-107984819D01*
X108310000Y-107984819D02*
X108071905Y-107984819D01*
X108976667Y-106984819D02*
X109595714Y-106984819D01*
X109595714Y-106984819D02*
X109262381Y-107365771D01*
X109262381Y-107365771D02*
X109405238Y-107365771D01*
X109405238Y-107365771D02*
X109500476Y-107413390D01*
X109500476Y-107413390D02*
X109548095Y-107461009D01*
X109548095Y-107461009D02*
X109595714Y-107556247D01*
X109595714Y-107556247D02*
X109595714Y-107794342D01*
X109595714Y-107794342D02*
X109548095Y-107889580D01*
X109548095Y-107889580D02*
X109500476Y-107937200D01*
X109500476Y-107937200D02*
X109405238Y-107984819D01*
X109405238Y-107984819D02*
X109119524Y-107984819D01*
X109119524Y-107984819D02*
X109024286Y-107937200D01*
X109024286Y-107937200D02*
X108976667Y-107889580D01*
X104738095Y-108354819D02*
X104738095Y-107354819D01*
X105309523Y-108354819D02*
X104880952Y-107783390D01*
X105309523Y-107354819D02*
X104738095Y-107926247D01*
D14*
%TO.C,TR1*%
X130910000Y-57530000D02*
X130910000Y-95870000D01*
X130910000Y-57530000D02*
X174330000Y-57530000D01*
X174330000Y-95870000D02*
X130910000Y-95870000D01*
X174330000Y-95870000D02*
X174330000Y-57530000D01*
%TO.C,JP1*%
X183670000Y-102670000D02*
X185000000Y-102670000D01*
X183670000Y-104000000D02*
X183670000Y-102670000D01*
X183670000Y-105270000D02*
X183670000Y-105330000D01*
X183670000Y-105270000D02*
X186330000Y-105270000D01*
X183670000Y-105330000D02*
X186330000Y-105330000D01*
X186330000Y-105270000D02*
X186330000Y-105330000D01*
%TO.C,F1*%
X121350000Y-61500000D02*
X121350000Y-67500000D01*
X121350000Y-67500000D02*
X122900000Y-67500000D01*
X121350000Y-76500000D02*
X121350000Y-82500000D01*
X121350000Y-76500000D02*
X122900000Y-76500000D01*
X121350000Y-82500000D02*
X122900000Y-82500000D01*
X121500000Y-67500000D02*
X121500000Y-76500000D01*
X122900000Y-61500000D02*
X121350000Y-61500000D01*
X125100000Y-61500000D02*
X126650000Y-61500000D01*
X126500000Y-67500000D02*
X126500000Y-76500000D01*
X126650000Y-67500000D02*
X125100000Y-67500000D01*
X126650000Y-67500000D02*
X126650000Y-61500000D01*
X126650000Y-76500000D02*
X125100000Y-76500000D01*
X126650000Y-76500000D02*
X126650000Y-82500000D01*
X126650000Y-82500000D02*
X125100000Y-82500000D01*
%TO.C,C2*%
X135880000Y-118630000D02*
X135880000Y-121370000D01*
X135880000Y-118630000D02*
X143120000Y-118630000D01*
X135880000Y-121370000D02*
X143120000Y-121370000D01*
X143120000Y-118630000D02*
X143120000Y-121370000D01*
%TO.C,C1*%
X132060509Y-101445000D02*
X133660509Y-101445000D01*
X132860509Y-100645000D02*
X132860509Y-102245000D01*
X140750000Y-97919000D02*
X140750000Y-114081000D01*
X140790000Y-97920000D02*
X140790000Y-114080000D01*
X140830000Y-97920000D02*
X140830000Y-114080000D01*
X140870000Y-97920000D02*
X140870000Y-114080000D01*
X140910000Y-97921000D02*
X140910000Y-114079000D01*
X140950000Y-97922000D02*
X140950000Y-114078000D01*
X140990000Y-97923000D02*
X140990000Y-114077000D01*
X141030000Y-97924000D02*
X141030000Y-114076000D01*
X141070000Y-97926000D02*
X141070000Y-114074000D01*
X141110000Y-97927000D02*
X141110000Y-114073000D01*
X141150000Y-97929000D02*
X141150000Y-114071000D01*
X141190000Y-97931000D02*
X141190000Y-114069000D01*
X141230000Y-97934000D02*
X141230000Y-114066000D01*
X141270000Y-97936000D02*
X141270000Y-114064000D01*
X141310000Y-97939000D02*
X141310000Y-114061000D01*
X141350000Y-97942000D02*
X141350000Y-114058000D01*
X141390000Y-97945000D02*
X141390000Y-114055000D01*
X141430000Y-97948000D02*
X141430000Y-114052000D01*
X141471000Y-97951000D02*
X141471000Y-114049000D01*
X141511000Y-97955000D02*
X141511000Y-114045000D01*
X141551000Y-97959000D02*
X141551000Y-114041000D01*
X141591000Y-97963000D02*
X141591000Y-114037000D01*
X141631000Y-97967000D02*
X141631000Y-114033000D01*
X141671000Y-97972000D02*
X141671000Y-114028000D01*
X141711000Y-97976000D02*
X141711000Y-114024000D01*
X141751000Y-97981000D02*
X141751000Y-114019000D01*
X141791000Y-97986000D02*
X141791000Y-114014000D01*
X141831000Y-97992000D02*
X141831000Y-114008000D01*
X141871000Y-97997000D02*
X141871000Y-114003000D01*
X141911000Y-98003000D02*
X141911000Y-113997000D01*
X141951000Y-98009000D02*
X141951000Y-113991000D01*
X141991000Y-98015000D02*
X141991000Y-113985000D01*
X142031000Y-98021000D02*
X142031000Y-113979000D01*
X142071000Y-98028000D02*
X142071000Y-113972000D01*
X142111000Y-98034000D02*
X142111000Y-113966000D01*
X142151000Y-98041000D02*
X142151000Y-113959000D01*
X142191000Y-98048000D02*
X142191000Y-113952000D01*
X142231000Y-98056000D02*
X142231000Y-113944000D01*
X142271000Y-98063000D02*
X142271000Y-113937000D01*
X142311000Y-98071000D02*
X142311000Y-113929000D01*
X142351000Y-98079000D02*
X142351000Y-113921000D01*
X142391000Y-98087000D02*
X142391000Y-113913000D01*
X142431000Y-98095000D02*
X142431000Y-113905000D01*
X142471000Y-98104000D02*
X142471000Y-113896000D01*
X142511000Y-98113000D02*
X142511000Y-113887000D01*
X142551000Y-98122000D02*
X142551000Y-113878000D01*
X142591000Y-98131000D02*
X142591000Y-113869000D01*
X142631000Y-98140000D02*
X142631000Y-113860000D01*
X142671000Y-98150000D02*
X142671000Y-113850000D01*
X142711000Y-98160000D02*
X142711000Y-113840000D01*
X142751000Y-98170000D02*
X142751000Y-113830000D01*
X142791000Y-98180000D02*
X142791000Y-113820000D01*
X142831000Y-98190000D02*
X142831000Y-113810000D01*
X142871000Y-98201000D02*
X142871000Y-113799000D01*
X142911000Y-98212000D02*
X142911000Y-113788000D01*
X142951000Y-98223000D02*
X142951000Y-113777000D01*
X142991000Y-98235000D02*
X142991000Y-113765000D01*
X143031000Y-98246000D02*
X143031000Y-113754000D01*
X143071000Y-98258000D02*
X143071000Y-104560000D01*
X143071000Y-107440000D02*
X143071000Y-113742000D01*
X143111000Y-98270000D02*
X143111000Y-104560000D01*
X143111000Y-107440000D02*
X143111000Y-113730000D01*
X143151000Y-98282000D02*
X143151000Y-104560000D01*
X143151000Y-107440000D02*
X143151000Y-113718000D01*
X143191000Y-98295000D02*
X143191000Y-104560000D01*
X143191000Y-107440000D02*
X143191000Y-113705000D01*
X143231000Y-98307000D02*
X143231000Y-104560000D01*
X143231000Y-107440000D02*
X143231000Y-113693000D01*
X143271000Y-98320000D02*
X143271000Y-104560000D01*
X143271000Y-107440000D02*
X143271000Y-113680000D01*
X143311000Y-98334000D02*
X143311000Y-104560000D01*
X143311000Y-107440000D02*
X143311000Y-113666000D01*
X143351000Y-98347000D02*
X143351000Y-104560000D01*
X143351000Y-107440000D02*
X143351000Y-113653000D01*
X143391000Y-98361000D02*
X143391000Y-104560000D01*
X143391000Y-107440000D02*
X143391000Y-113639000D01*
X143431000Y-98375000D02*
X143431000Y-104560000D01*
X143431000Y-107440000D02*
X143431000Y-113625000D01*
X143471000Y-98389000D02*
X143471000Y-104560000D01*
X143471000Y-107440000D02*
X143471000Y-113611000D01*
X143511000Y-98403000D02*
X143511000Y-104560000D01*
X143511000Y-107440000D02*
X143511000Y-113597000D01*
X143551000Y-98418000D02*
X143551000Y-104560000D01*
X143551000Y-107440000D02*
X143551000Y-113582000D01*
X143591000Y-98432000D02*
X143591000Y-104560000D01*
X143591000Y-107440000D02*
X143591000Y-113568000D01*
X143631000Y-98447000D02*
X143631000Y-104560000D01*
X143631000Y-107440000D02*
X143631000Y-113553000D01*
X143671000Y-98463000D02*
X143671000Y-104560000D01*
X143671000Y-107440000D02*
X143671000Y-113537000D01*
X143711000Y-98478000D02*
X143711000Y-104560000D01*
X143711000Y-107440000D02*
X143711000Y-113522000D01*
X143751000Y-98494000D02*
X143751000Y-104560000D01*
X143751000Y-107440000D02*
X143751000Y-113506000D01*
X143791000Y-98510000D02*
X143791000Y-104560000D01*
X143791000Y-107440000D02*
X143791000Y-113490000D01*
X143831000Y-98526000D02*
X143831000Y-104560000D01*
X143831000Y-107440000D02*
X143831000Y-113474000D01*
X143871000Y-98543000D02*
X143871000Y-104560000D01*
X143871000Y-107440000D02*
X143871000Y-113457000D01*
X143911000Y-98560000D02*
X143911000Y-104560000D01*
X143911000Y-107440000D02*
X143911000Y-113440000D01*
X143951000Y-98577000D02*
X143951000Y-104560000D01*
X143951000Y-107440000D02*
X143951000Y-113423000D01*
X143991000Y-98594000D02*
X143991000Y-104560000D01*
X143991000Y-107440000D02*
X143991000Y-113406000D01*
X144031000Y-98611000D02*
X144031000Y-104560000D01*
X144031000Y-107440000D02*
X144031000Y-113389000D01*
X144071000Y-98629000D02*
X144071000Y-104560000D01*
X144071000Y-107440000D02*
X144071000Y-113371000D01*
X144111000Y-98647000D02*
X144111000Y-104560000D01*
X144111000Y-107440000D02*
X144111000Y-113353000D01*
X144151000Y-98666000D02*
X144151000Y-104560000D01*
X144151000Y-107440000D02*
X144151000Y-113334000D01*
X144191000Y-98684000D02*
X144191000Y-104560000D01*
X144191000Y-107440000D02*
X144191000Y-113316000D01*
X144231000Y-98703000D02*
X144231000Y-104560000D01*
X144231000Y-107440000D02*
X144231000Y-113297000D01*
X144271000Y-98722000D02*
X144271000Y-104560000D01*
X144271000Y-107440000D02*
X144271000Y-113278000D01*
X144311000Y-98742000D02*
X144311000Y-104560000D01*
X144311000Y-107440000D02*
X144311000Y-113258000D01*
X144351000Y-98761000D02*
X144351000Y-104560000D01*
X144351000Y-107440000D02*
X144351000Y-113239000D01*
X144391000Y-98781000D02*
X144391000Y-104560000D01*
X144391000Y-107440000D02*
X144391000Y-113219000D01*
X144431000Y-98801000D02*
X144431000Y-104560000D01*
X144431000Y-107440000D02*
X144431000Y-113199000D01*
X144471000Y-98822000D02*
X144471000Y-104560000D01*
X144471000Y-107440000D02*
X144471000Y-113178000D01*
X144511000Y-98843000D02*
X144511000Y-104560000D01*
X144511000Y-107440000D02*
X144511000Y-113157000D01*
X144551000Y-98864000D02*
X144551000Y-104560000D01*
X144551000Y-107440000D02*
X144551000Y-113136000D01*
X144591000Y-98885000D02*
X144591000Y-104560000D01*
X144591000Y-107440000D02*
X144591000Y-113115000D01*
X144631000Y-98906000D02*
X144631000Y-104560000D01*
X144631000Y-107440000D02*
X144631000Y-113094000D01*
X144671000Y-98928000D02*
X144671000Y-104560000D01*
X144671000Y-107440000D02*
X144671000Y-113072000D01*
X144711000Y-98951000D02*
X144711000Y-104560000D01*
X144711000Y-107440000D02*
X144711000Y-113049000D01*
X144751000Y-98973000D02*
X144751000Y-104560000D01*
X144751000Y-107440000D02*
X144751000Y-113027000D01*
X144791000Y-98996000D02*
X144791000Y-104560000D01*
X144791000Y-107440000D02*
X144791000Y-113004000D01*
X144831000Y-99019000D02*
X144831000Y-104560000D01*
X144831000Y-107440000D02*
X144831000Y-112981000D01*
X144871000Y-99042000D02*
X144871000Y-104560000D01*
X144871000Y-107440000D02*
X144871000Y-112958000D01*
X144911000Y-99066000D02*
X144911000Y-104560000D01*
X144911000Y-107440000D02*
X144911000Y-112934000D01*
X144951000Y-99090000D02*
X144951000Y-104560000D01*
X144951000Y-107440000D02*
X144951000Y-112910000D01*
X144991000Y-99114000D02*
X144991000Y-104560000D01*
X144991000Y-107440000D02*
X144991000Y-112886000D01*
X145031000Y-99139000D02*
X145031000Y-104560000D01*
X145031000Y-107440000D02*
X145031000Y-112861000D01*
X145071000Y-99164000D02*
X145071000Y-104560000D01*
X145071000Y-107440000D02*
X145071000Y-112836000D01*
X145111000Y-99189000D02*
X145111000Y-104560000D01*
X145111000Y-107440000D02*
X145111000Y-112811000D01*
X145151000Y-99215000D02*
X145151000Y-104560000D01*
X145151000Y-107440000D02*
X145151000Y-112785000D01*
X145191000Y-99241000D02*
X145191000Y-104560000D01*
X145191000Y-107440000D02*
X145191000Y-112759000D01*
X145231000Y-99267000D02*
X145231000Y-104560000D01*
X145231000Y-107440000D02*
X145231000Y-112733000D01*
X145271000Y-99294000D02*
X145271000Y-104560000D01*
X145271000Y-107440000D02*
X145271000Y-112706000D01*
X145311000Y-99321000D02*
X145311000Y-104560000D01*
X145311000Y-107440000D02*
X145311000Y-112679000D01*
X145351000Y-99348000D02*
X145351000Y-104560000D01*
X145351000Y-107440000D02*
X145351000Y-112652000D01*
X145391000Y-99376000D02*
X145391000Y-104560000D01*
X145391000Y-107440000D02*
X145391000Y-112624000D01*
X145431000Y-99404000D02*
X145431000Y-104560000D01*
X145431000Y-107440000D02*
X145431000Y-112596000D01*
X145471000Y-99432000D02*
X145471000Y-104560000D01*
X145471000Y-107440000D02*
X145471000Y-112568000D01*
X145511000Y-99461000D02*
X145511000Y-104560000D01*
X145511000Y-107440000D02*
X145511000Y-112539000D01*
X145551000Y-99490000D02*
X145551000Y-104560000D01*
X145551000Y-107440000D02*
X145551000Y-112510000D01*
X145591000Y-99520000D02*
X145591000Y-104560000D01*
X145591000Y-107440000D02*
X145591000Y-112480000D01*
X145631000Y-99550000D02*
X145631000Y-104560000D01*
X145631000Y-107440000D02*
X145631000Y-112450000D01*
X145671000Y-99580000D02*
X145671000Y-104560000D01*
X145671000Y-107440000D02*
X145671000Y-112420000D01*
X145711000Y-99610000D02*
X145711000Y-104560000D01*
X145711000Y-107440000D02*
X145711000Y-112390000D01*
X145751000Y-99642000D02*
X145751000Y-104560000D01*
X145751000Y-107440000D02*
X145751000Y-112358000D01*
X145791000Y-99673000D02*
X145791000Y-104560000D01*
X145791000Y-107440000D02*
X145791000Y-112327000D01*
X145831000Y-99705000D02*
X145831000Y-104560000D01*
X145831000Y-107440000D02*
X145831000Y-112295000D01*
X145871000Y-99737000D02*
X145871000Y-104560000D01*
X145871000Y-107440000D02*
X145871000Y-112263000D01*
X145911000Y-99770000D02*
X145911000Y-104560000D01*
X145911000Y-107440000D02*
X145911000Y-112230000D01*
X145951000Y-99803000D02*
X145951000Y-112197000D01*
X145991000Y-99837000D02*
X145991000Y-112163000D01*
X146031000Y-99871000D02*
X146031000Y-112129000D01*
X146071000Y-99905000D02*
X146071000Y-112095000D01*
X146111000Y-99940000D02*
X146111000Y-112060000D01*
X146151000Y-99975000D02*
X146151000Y-112025000D01*
X146191000Y-100011000D02*
X146191000Y-111989000D01*
X146231000Y-100048000D02*
X146231000Y-111952000D01*
X146271000Y-100084000D02*
X146271000Y-111916000D01*
X146311000Y-100122000D02*
X146311000Y-111878000D01*
X146351000Y-100160000D02*
X146351000Y-111840000D01*
X146391000Y-100198000D02*
X146391000Y-111802000D01*
X146431000Y-100237000D02*
X146431000Y-111763000D01*
X146471000Y-100276000D02*
X146471000Y-111724000D01*
X146511000Y-100316000D02*
X146511000Y-111684000D01*
X146551000Y-100357000D02*
X146551000Y-111643000D01*
X146591000Y-100398000D02*
X146591000Y-111602000D01*
X146631000Y-100440000D02*
X146631000Y-111560000D01*
X146671000Y-100482000D02*
X146671000Y-111518000D01*
X146711000Y-100525000D02*
X146711000Y-111475000D01*
X146751000Y-100568000D02*
X146751000Y-111432000D01*
X146791000Y-100612000D02*
X146791000Y-111388000D01*
X146831000Y-100657000D02*
X146831000Y-111343000D01*
X146871000Y-100703000D02*
X146871000Y-111297000D01*
X146911000Y-100749000D02*
X146911000Y-111251000D01*
X146951000Y-100796000D02*
X146951000Y-111204000D01*
X146991000Y-100844000D02*
X146991000Y-111156000D01*
X147031000Y-100892000D02*
X147031000Y-111108000D01*
X147071000Y-100941000D02*
X147071000Y-111059000D01*
X147111000Y-100991000D02*
X147111000Y-111009000D01*
X147151000Y-101042000D02*
X147151000Y-110958000D01*
X147191000Y-101094000D02*
X147191000Y-110906000D01*
X147231000Y-101146000D02*
X147231000Y-110854000D01*
X147271000Y-101200000D02*
X147271000Y-110800000D01*
X147311000Y-101254000D02*
X147311000Y-110746000D01*
X147351000Y-101309000D02*
X147351000Y-110691000D01*
X147391000Y-101366000D02*
X147391000Y-110634000D01*
X147431000Y-101423000D02*
X147431000Y-110577000D01*
X147471000Y-101481000D02*
X147471000Y-110519000D01*
X147511000Y-101541000D02*
X147511000Y-110459000D01*
X147551000Y-101602000D02*
X147551000Y-110398000D01*
X147591000Y-101664000D02*
X147591000Y-110336000D01*
X147631000Y-101727000D02*
X147631000Y-110273000D01*
X147671000Y-101791000D02*
X147671000Y-110209000D01*
X147711000Y-101857000D02*
X147711000Y-110143000D01*
X147751000Y-101924000D02*
X147751000Y-110076000D01*
X147791000Y-101993000D02*
X147791000Y-110007000D01*
X147831000Y-102064000D02*
X147831000Y-109936000D01*
X147871000Y-102136000D02*
X147871000Y-109864000D01*
X147911000Y-102210000D02*
X147911000Y-109790000D01*
X147951000Y-102285000D02*
X147951000Y-109715000D01*
X147991000Y-102363000D02*
X147991000Y-109637000D01*
X148031000Y-102443000D02*
X148031000Y-109557000D01*
X148071000Y-102525000D02*
X148071000Y-109475000D01*
X148111000Y-102610000D02*
X148111000Y-109390000D01*
X148151000Y-102697000D02*
X148151000Y-109303000D01*
X148191000Y-102787000D02*
X148191000Y-109213000D01*
X148231000Y-102880000D02*
X148231000Y-109120000D01*
X148271000Y-102976000D02*
X148271000Y-109024000D01*
X148311000Y-103076000D02*
X148311000Y-108924000D01*
X148351000Y-103180000D02*
X148351000Y-108820000D01*
X148391000Y-103289000D02*
X148391000Y-108711000D01*
X148431000Y-103403000D02*
X148431000Y-108597000D01*
X148471000Y-103522000D02*
X148471000Y-108478000D01*
X148511000Y-103649000D02*
X148511000Y-108351000D01*
X148551000Y-103782000D02*
X148551000Y-108218000D01*
X148591000Y-103926000D02*
X148591000Y-108074000D01*
X148631000Y-104080000D02*
X148631000Y-107920000D01*
X148671000Y-104248000D02*
X148671000Y-107752000D01*
X148711000Y-104436000D02*
X148711000Y-107564000D01*
X148751000Y-104649000D02*
X148751000Y-107351000D01*
X148791000Y-104902000D02*
X148791000Y-107098000D01*
X148831000Y-105235000D02*
X148831000Y-106765000D01*
X148870000Y-106000000D02*
G75*
G02*
X132630000Y-106000000I-8120000J0D01*
G01*
X132630000Y-106000000D02*
G75*
G02*
X148870000Y-106000000I8120000J0D01*
G01*
%TO.C,JP2*%
X183670000Y-114670000D02*
X185000000Y-114670000D01*
X183670000Y-116000000D02*
X183670000Y-114670000D01*
X183670000Y-117270000D02*
X183670000Y-117330000D01*
X183670000Y-117270000D02*
X186330000Y-117270000D01*
X183670000Y-117330000D02*
X186330000Y-117330000D01*
X186330000Y-117270000D02*
X186330000Y-117330000D01*
%TO.C,J1*%
X101200000Y-70560000D02*
X101200000Y-72300000D01*
X101200000Y-72300000D02*
X102700000Y-72300000D01*
X101440000Y-62940000D02*
X101440000Y-72060000D01*
X101440000Y-62940000D02*
X116560000Y-62940000D01*
X101440000Y-70500000D02*
X116560000Y-70500000D01*
X101440000Y-72060000D02*
X116560000Y-72060000D01*
X112820000Y-68976000D02*
X112726000Y-69069000D01*
X112990000Y-69216000D02*
X112931000Y-69274000D01*
X115070000Y-66725000D02*
X115011000Y-66784000D01*
X115275000Y-66931000D02*
X115181000Y-67024000D01*
X116560000Y-62940000D02*
X116560000Y-72060000D01*
X102516047Y-68789089D02*
G75*
G02*
X102516000Y-67211000I1483948J789089D01*
G01*
X103210911Y-66516047D02*
G75*
G02*
X104789000Y-66516000I789089J-1483948D01*
G01*
X104029383Y-69680450D02*
G75*
G02*
X103211000Y-69484000I-29385J1680445D01*
G01*
X104788712Y-69483352D02*
G75*
G02*
X104000000Y-69680000I-788712J1483352D01*
G01*
X105483953Y-67210911D02*
G75*
G02*
X105484000Y-68789000I-1483953J-789089D01*
G01*
X104900000Y-65000000D02*
G75*
G02*
X103100000Y-65000000I-900000J0D01*
G01*
X103100000Y-65000000D02*
G75*
G02*
X104900000Y-65000000I900000J0D01*
G01*
X109900000Y-65000000D02*
G75*
G02*
X108100000Y-65000000I-900000J0D01*
G01*
X108100000Y-65000000D02*
G75*
G02*
X109900000Y-65000000I900000J0D01*
G01*
X110500000Y-68000000D02*
G75*
G02*
X107500000Y-68000000I-1500000J0D01*
G01*
X107500000Y-68000000D02*
G75*
G02*
X110500000Y-68000000I1500000J0D01*
G01*
X114900000Y-65000000D02*
G75*
G02*
X113100000Y-65000000I-900000J0D01*
G01*
X113100000Y-65000000D02*
G75*
G02*
X114900000Y-65000000I900000J0D01*
G01*
X115680000Y-68000000D02*
G75*
G02*
X112320000Y-68000000I-1680000J0D01*
G01*
X112320000Y-68000000D02*
G75*
G02*
X115680000Y-68000000I1680000J0D01*
G01*
%TO.C,C4*%
X152020354Y-119125000D02*
X153020354Y-119125000D01*
X152520354Y-118625000D02*
X152520354Y-119625000D01*
X157500000Y-116920000D02*
X157500000Y-127080000D01*
X157540000Y-116920000D02*
X157540000Y-127080000D01*
X157580000Y-116920000D02*
X157580000Y-127080000D01*
X157620000Y-116921000D02*
X157620000Y-127079000D01*
X157660000Y-116922000D02*
X157660000Y-127078000D01*
X157700000Y-116923000D02*
X157700000Y-127077000D01*
X157740000Y-116925000D02*
X157740000Y-127075000D01*
X157780000Y-116927000D02*
X157780000Y-127073000D01*
X157820000Y-116930000D02*
X157820000Y-127070000D01*
X157860000Y-116932000D02*
X157860000Y-127068000D01*
X157900000Y-116935000D02*
X157900000Y-127065000D01*
X157940000Y-116938000D02*
X157940000Y-127062000D01*
X157980000Y-116942000D02*
X157980000Y-127058000D01*
X158020000Y-116946000D02*
X158020000Y-127054000D01*
X158060000Y-116950000D02*
X158060000Y-127050000D01*
X158100000Y-116955000D02*
X158100000Y-127045000D01*
X158140000Y-116960000D02*
X158140000Y-127040000D01*
X158180000Y-116965000D02*
X158180000Y-127035000D01*
X158221000Y-116970000D02*
X158221000Y-127030000D01*
X158261000Y-116976000D02*
X158261000Y-127024000D01*
X158301000Y-116982000D02*
X158301000Y-127018000D01*
X158341000Y-116989000D02*
X158341000Y-127011000D01*
X158381000Y-116996000D02*
X158381000Y-127004000D01*
X158421000Y-117003000D02*
X158421000Y-126997000D01*
X158461000Y-117010000D02*
X158461000Y-126990000D01*
X158501000Y-117018000D02*
X158501000Y-126982000D01*
X158541000Y-117026000D02*
X158541000Y-126974000D01*
X158581000Y-117035000D02*
X158581000Y-126965000D01*
X158621000Y-117044000D02*
X158621000Y-126956000D01*
X158661000Y-117053000D02*
X158661000Y-126947000D01*
X158701000Y-117062000D02*
X158701000Y-126938000D01*
X158741000Y-117072000D02*
X158741000Y-126928000D01*
X158781000Y-117082000D02*
X158781000Y-120759000D01*
X158781000Y-123241000D02*
X158781000Y-126918000D01*
X158821000Y-117093000D02*
X158821000Y-120759000D01*
X158821000Y-123241000D02*
X158821000Y-126907000D01*
X158861000Y-117103000D02*
X158861000Y-120759000D01*
X158861000Y-123241000D02*
X158861000Y-126897000D01*
X158901000Y-117115000D02*
X158901000Y-120759000D01*
X158901000Y-123241000D02*
X158901000Y-126885000D01*
X158941000Y-117126000D02*
X158941000Y-120759000D01*
X158941000Y-123241000D02*
X158941000Y-126874000D01*
X158981000Y-117138000D02*
X158981000Y-120759000D01*
X158981000Y-123241000D02*
X158981000Y-126862000D01*
X159021000Y-117150000D02*
X159021000Y-120759000D01*
X159021000Y-123241000D02*
X159021000Y-126850000D01*
X159061000Y-117163000D02*
X159061000Y-120759000D01*
X159061000Y-123241000D02*
X159061000Y-126837000D01*
X159101000Y-117176000D02*
X159101000Y-120759000D01*
X159101000Y-123241000D02*
X159101000Y-126824000D01*
X159141000Y-117189000D02*
X159141000Y-120759000D01*
X159141000Y-123241000D02*
X159141000Y-126811000D01*
X159181000Y-117203000D02*
X159181000Y-120759000D01*
X159181000Y-123241000D02*
X159181000Y-126797000D01*
X159221000Y-117217000D02*
X159221000Y-120759000D01*
X159221000Y-123241000D02*
X159221000Y-126783000D01*
X159261000Y-117232000D02*
X159261000Y-120759000D01*
X159261000Y-123241000D02*
X159261000Y-126768000D01*
X159301000Y-117246000D02*
X159301000Y-120759000D01*
X159301000Y-123241000D02*
X159301000Y-126754000D01*
X159341000Y-117262000D02*
X159341000Y-120759000D01*
X159341000Y-123241000D02*
X159341000Y-126738000D01*
X159381000Y-117277000D02*
X159381000Y-120759000D01*
X159381000Y-123241000D02*
X159381000Y-126723000D01*
X159421000Y-117293000D02*
X159421000Y-120759000D01*
X159421000Y-123241000D02*
X159421000Y-126707000D01*
X159461000Y-117310000D02*
X159461000Y-120759000D01*
X159461000Y-123241000D02*
X159461000Y-126690000D01*
X159501000Y-117326000D02*
X159501000Y-120759000D01*
X159501000Y-123241000D02*
X159501000Y-126674000D01*
X159541000Y-117343000D02*
X159541000Y-120759000D01*
X159541000Y-123241000D02*
X159541000Y-126657000D01*
X159581000Y-117361000D02*
X159581000Y-120759000D01*
X159581000Y-123241000D02*
X159581000Y-126639000D01*
X159621000Y-117379000D02*
X159621000Y-120759000D01*
X159621000Y-123241000D02*
X159621000Y-126621000D01*
X159661000Y-117397000D02*
X159661000Y-120759000D01*
X159661000Y-123241000D02*
X159661000Y-126603000D01*
X159701000Y-117416000D02*
X159701000Y-120759000D01*
X159701000Y-123241000D02*
X159701000Y-126584000D01*
X159741000Y-117436000D02*
X159741000Y-120759000D01*
X159741000Y-123241000D02*
X159741000Y-126564000D01*
X159781000Y-117455000D02*
X159781000Y-120759000D01*
X159781000Y-123241000D02*
X159781000Y-126545000D01*
X159821000Y-117475000D02*
X159821000Y-120759000D01*
X159821000Y-123241000D02*
X159821000Y-126525000D01*
X159861000Y-117496000D02*
X159861000Y-120759000D01*
X159861000Y-123241000D02*
X159861000Y-126504000D01*
X159901000Y-117517000D02*
X159901000Y-120759000D01*
X159901000Y-123241000D02*
X159901000Y-126483000D01*
X159941000Y-117538000D02*
X159941000Y-120759000D01*
X159941000Y-123241000D02*
X159941000Y-126462000D01*
X159981000Y-117560000D02*
X159981000Y-120759000D01*
X159981000Y-123241000D02*
X159981000Y-126440000D01*
X160021000Y-117583000D02*
X160021000Y-120759000D01*
X160021000Y-123241000D02*
X160021000Y-126417000D01*
X160061000Y-117605000D02*
X160061000Y-120759000D01*
X160061000Y-123241000D02*
X160061000Y-126395000D01*
X160101000Y-117629000D02*
X160101000Y-120759000D01*
X160101000Y-123241000D02*
X160101000Y-126371000D01*
X160141000Y-117653000D02*
X160141000Y-120759000D01*
X160141000Y-123241000D02*
X160141000Y-126347000D01*
X160181000Y-117677000D02*
X160181000Y-120759000D01*
X160181000Y-123241000D02*
X160181000Y-126323000D01*
X160221000Y-117702000D02*
X160221000Y-120759000D01*
X160221000Y-123241000D02*
X160221000Y-126298000D01*
X160261000Y-117727000D02*
X160261000Y-120759000D01*
X160261000Y-123241000D02*
X160261000Y-126273000D01*
X160301000Y-117753000D02*
X160301000Y-120759000D01*
X160301000Y-123241000D02*
X160301000Y-126247000D01*
X160341000Y-117779000D02*
X160341000Y-120759000D01*
X160341000Y-123241000D02*
X160341000Y-126221000D01*
X160381000Y-117806000D02*
X160381000Y-120759000D01*
X160381000Y-123241000D02*
X160381000Y-126194000D01*
X160421000Y-117834000D02*
X160421000Y-120759000D01*
X160421000Y-123241000D02*
X160421000Y-126166000D01*
X160461000Y-117862000D02*
X160461000Y-120759000D01*
X160461000Y-123241000D02*
X160461000Y-126138000D01*
X160501000Y-117890000D02*
X160501000Y-120759000D01*
X160501000Y-123241000D02*
X160501000Y-126110000D01*
X160541000Y-117920000D02*
X160541000Y-120759000D01*
X160541000Y-123241000D02*
X160541000Y-126080000D01*
X160581000Y-117950000D02*
X160581000Y-120759000D01*
X160581000Y-123241000D02*
X160581000Y-126050000D01*
X160621000Y-117980000D02*
X160621000Y-120759000D01*
X160621000Y-123241000D02*
X160621000Y-126020000D01*
X160661000Y-118011000D02*
X160661000Y-120759000D01*
X160661000Y-123241000D02*
X160661000Y-125989000D01*
X160701000Y-118043000D02*
X160701000Y-120759000D01*
X160701000Y-123241000D02*
X160701000Y-125957000D01*
X160741000Y-118075000D02*
X160741000Y-120759000D01*
X160741000Y-123241000D02*
X160741000Y-125925000D01*
X160781000Y-118108000D02*
X160781000Y-120759000D01*
X160781000Y-123241000D02*
X160781000Y-125892000D01*
X160821000Y-118142000D02*
X160821000Y-120759000D01*
X160821000Y-123241000D02*
X160821000Y-125858000D01*
X160861000Y-118176000D02*
X160861000Y-120759000D01*
X160861000Y-123241000D02*
X160861000Y-125824000D01*
X160901000Y-118211000D02*
X160901000Y-120759000D01*
X160901000Y-123241000D02*
X160901000Y-125789000D01*
X160941000Y-118247000D02*
X160941000Y-120759000D01*
X160941000Y-123241000D02*
X160941000Y-125753000D01*
X160981000Y-118284000D02*
X160981000Y-120759000D01*
X160981000Y-123241000D02*
X160981000Y-125716000D01*
X161021000Y-118321000D02*
X161021000Y-120759000D01*
X161021000Y-123241000D02*
X161021000Y-125679000D01*
X161061000Y-118360000D02*
X161061000Y-120759000D01*
X161061000Y-123241000D02*
X161061000Y-125640000D01*
X161101000Y-118399000D02*
X161101000Y-120759000D01*
X161101000Y-123241000D02*
X161101000Y-125601000D01*
X161141000Y-118439000D02*
X161141000Y-120759000D01*
X161141000Y-123241000D02*
X161141000Y-125561000D01*
X161181000Y-118480000D02*
X161181000Y-120759000D01*
X161181000Y-123241000D02*
X161181000Y-125520000D01*
X161221000Y-118522000D02*
X161221000Y-120759000D01*
X161221000Y-123241000D02*
X161221000Y-125478000D01*
X161261000Y-118564000D02*
X161261000Y-125436000D01*
X161301000Y-118608000D02*
X161301000Y-125392000D01*
X161341000Y-118653000D02*
X161341000Y-125347000D01*
X161381000Y-118699000D02*
X161381000Y-125301000D01*
X161421000Y-118746000D02*
X161421000Y-125254000D01*
X161461000Y-118794000D02*
X161461000Y-125206000D01*
X161501000Y-118844000D02*
X161501000Y-125156000D01*
X161541000Y-118894000D02*
X161541000Y-125106000D01*
X161581000Y-118946000D02*
X161581000Y-125054000D01*
X161621000Y-119000000D02*
X161621000Y-125000000D01*
X161661000Y-119055000D02*
X161661000Y-124945000D01*
X161701000Y-119111000D02*
X161701000Y-124889000D01*
X161741000Y-119170000D02*
X161741000Y-124830000D01*
X161781000Y-119230000D02*
X161781000Y-124770000D01*
X161821000Y-119291000D02*
X161821000Y-124709000D01*
X161861000Y-119355000D02*
X161861000Y-124645000D01*
X161901000Y-119421000D02*
X161901000Y-124579000D01*
X161941000Y-119490000D02*
X161941000Y-124510000D01*
X161981000Y-119561000D02*
X161981000Y-124439000D01*
X162021000Y-119635000D02*
X162021000Y-124365000D01*
X162061000Y-119711000D02*
X162061000Y-124289000D01*
X162101000Y-119791000D02*
X162101000Y-124209000D01*
X162141000Y-119875000D02*
X162141000Y-124125000D01*
X162181000Y-119963000D02*
X162181000Y-124037000D01*
X162221000Y-120056000D02*
X162221000Y-123944000D01*
X162261000Y-120154000D02*
X162261000Y-123846000D01*
X162301000Y-120258000D02*
X162301000Y-123742000D01*
X162341000Y-120370000D02*
X162341000Y-123630000D01*
X162381000Y-120490000D02*
X162381000Y-123510000D01*
X162421000Y-120622000D02*
X162421000Y-123378000D01*
X162461000Y-120770000D02*
X162461000Y-123230000D01*
X162501000Y-120938000D02*
X162501000Y-123062000D01*
X162541000Y-121138000D02*
X162541000Y-122862000D01*
X162581000Y-121401000D02*
X162581000Y-122599000D01*
X162620000Y-122000000D02*
G75*
G02*
X152380000Y-122000000I-5120000J0D01*
G01*
X152380000Y-122000000D02*
G75*
G02*
X162620000Y-122000000I5120000J0D01*
G01*
%TO.C,U1*%
X155420000Y-102730000D02*
X155420000Y-107371000D01*
X155420000Y-102730000D02*
X165660000Y-102730000D01*
X155420000Y-104240000D02*
X165660000Y-104240000D01*
X155420000Y-107371000D02*
X165660000Y-107371000D01*
X158690000Y-102730000D02*
X158690000Y-104240000D01*
X162391000Y-102730000D02*
X162391000Y-104240000D01*
X165660000Y-102730000D02*
X165660000Y-107371000D01*
%TO.C,C3*%
X166880000Y-120630000D02*
X166880000Y-123370000D01*
X166880000Y-120630000D02*
X174120000Y-120630000D01*
X166880000Y-123370000D02*
X174120000Y-123370000D01*
X174120000Y-120630000D02*
X174120000Y-123370000D01*
%TO.C,D1*%
X106090000Y-98530000D02*
X106090000Y-98660000D01*
X106090000Y-101470000D02*
X106090000Y-101340000D01*
X110510000Y-101470000D02*
X110510000Y-98530000D01*
X110630000Y-101470000D02*
X110630000Y-98530000D01*
X110750000Y-101470000D02*
X110750000Y-98530000D01*
X111530000Y-98530000D02*
X106090000Y-98530000D01*
X111530000Y-98660000D02*
X111530000Y-98530000D01*
X111530000Y-101340000D02*
X111530000Y-101470000D01*
X111530000Y-101470000D02*
X106090000Y-101470000D01*
%TO.C,D2*%
X121090000Y-98530000D02*
X126530000Y-98530000D01*
X121090000Y-98660000D02*
X121090000Y-98530000D01*
X121090000Y-101340000D02*
X121090000Y-101470000D01*
X121090000Y-101470000D02*
X126530000Y-101470000D01*
X121870000Y-98530000D02*
X121870000Y-101470000D01*
X121990000Y-98530000D02*
X121990000Y-101470000D01*
X122110000Y-98530000D02*
X122110000Y-101470000D01*
X126530000Y-98530000D02*
X126530000Y-98660000D01*
X126530000Y-101470000D02*
X126530000Y-101340000D01*
%TO.C,D4*%
X121090000Y-108530000D02*
X121090000Y-108660000D01*
X121090000Y-111470000D02*
X121090000Y-111340000D01*
X125510000Y-111470000D02*
X125510000Y-108530000D01*
X125630000Y-111470000D02*
X125630000Y-108530000D01*
X125750000Y-111470000D02*
X125750000Y-108530000D01*
X126530000Y-108530000D02*
X121090000Y-108530000D01*
X126530000Y-108660000D02*
X126530000Y-108530000D01*
X126530000Y-111340000D02*
X126530000Y-111470000D01*
X126530000Y-111470000D02*
X121090000Y-111470000D01*
%TO.C,D3*%
X106090000Y-108530000D02*
X111530000Y-108530000D01*
X106090000Y-108660000D02*
X106090000Y-108530000D01*
X106090000Y-111340000D02*
X106090000Y-111470000D01*
X106090000Y-111470000D02*
X111530000Y-111470000D01*
X106870000Y-108530000D02*
X106870000Y-111470000D01*
X106990000Y-108530000D02*
X106990000Y-111470000D01*
X107110000Y-108530000D02*
X107110000Y-111470000D01*
X111530000Y-108530000D02*
X111530000Y-108660000D01*
X111530000Y-111470000D02*
X111530000Y-111340000D01*
%TD*%
M02*
